<svg xmlns="http://www.w3.org/2000/svg" viewBox="0 0 64 64">
  <rect width="64" height="64" rx="16" fill="#f6efe6"/>
  <path d="M21 16c2.6 0 3.9 1.4 3.9 4.1v8.2c7.1-1.6 14.2-2.5 21.1-2.7 1.8-.1 2.9.8 3 2.3.1 1.6-.9 2.5-2.8 2.6-6.9.2-14 .9-21.3 2.2v13.4c0 2.6-1.3 4-3.9 4s-3.9-1.4-3.9-4V34.4c-3.6.8-7.2 1.7-10.9 2.8-1.7.5-2.9-.1-3.5-1.7-.5-1.5.2-2.7 2-3.2 4.1-1.2 8.2-2.3 12.4-3.2v-9c0-2.7 1.3-4.1 3.9-4.1Z" fill="#201813"/>
  <path d="M19.2 50.1c9.4-10.4 18.4-17.8 27.1-22.1" fill="none" stroke="#201813" stroke-width="5" stroke-linecap="round"/>
</svg>
